<?xml version="1.0" encoding="iso-8859-1"?>
<!-- Generator: Adobe Illustrator 19.0.0, SVG Export Plug-In . SVG Version: 6.00 Build 0)  -->
<svg version="1.1" id="Capa_1" xmlns="http://www.w3.org/2000/svg" xmlns:xlink="http://www.w3.org/1999/xlink" x="0px" y="0px"
	 viewBox="0 0 436.905 436.905" style="enable-background:new 0 0 436.905 436.905;" xml:space="preserve">
<g>
	<g>
		<path d="M296.311,3.412H140.595c-13.532,0-24.542,11.01-24.542,24.542v155.716c0,13.532,11.01,24.542,24.542,24.542h155.716
			c13.532,0,24.542-11.01,24.542-24.542V27.954C320.853,14.422,309.844,3.412,296.311,3.412z M307.2,183.671
			c0,6.004-4.885,10.889-10.889,10.889H140.595c-6.004,0-10.888-4.885-10.888-10.889V27.954c0-6.004,4.884-10.889,10.888-10.889
			h155.716c6.004,0,10.889,4.884,10.889,10.889V183.671z"/>
	</g>
</g>
<g>
	<g>
		<path d="M180.258,228.692H24.542C11.01,228.692,0,239.702,0,253.234v155.716c0,13.532,11.01,24.542,24.542,24.542h155.716
			c13.532,0,24.542-11.01,24.542-24.542V253.234C204.8,239.702,193.79,228.692,180.258,228.692z M191.147,408.951
			c0,6.004-4.885,10.889-10.889,10.889H24.542c-6.004,0-10.889-4.884-10.889-10.889V253.234c0-6.004,4.884-10.889,10.889-10.889
			h155.716c6.004,0,10.889,4.885,10.889,10.889V408.951z"/>
	</g>
</g>
<g>
	<g>
		<path d="M412.363,228.692H256.649c-13.532,0-24.542,11.01-24.542,24.542v155.716c0,13.532,11.01,24.542,24.542,24.542h155.716
			c13.532,0,24.542-11.01,24.54-24.542V253.234C436.905,239.702,425.895,228.692,412.363,228.692z M423.252,408.951
			c0,6.004-4.884,10.889-10.889,10.889H256.649c-6.004,0-10.888-4.884-10.888-10.889V253.234c0-6.004,4.884-10.889,10.888-10.889
			h155.715c6.004,0,10.889,4.885,10.889,10.889V408.951z"/>
	</g>
</g>
<g>
	<g>
		<path d="M265.738,164.684L221.365,55.457c-1.046-2.575-3.546-4.258-6.325-4.258s-5.279,1.683-6.323,4.258l-44.373,109.227
			c-1.42,3.492,0.261,7.474,3.755,8.893c3.492,1.42,7.475-0.261,8.893-3.755l38.048-93.658l38.048,93.657
			c1.077,2.652,3.63,4.26,6.327,4.26c0.857,0,1.725-0.162,2.568-0.503C265.475,172.159,267.156,168.177,265.738,164.684z"/>
	</g>
</g>
<g>
	<g>
		<rect x="184.32" y="126.293" width="61.44" height="13.653"/>
	</g>
</g>
<g>
	<g>
		<path d="M68.267,276.479c-3.77,0-6.827,3.057-6.827,6.827v102.4c0,3.77,3.057,6.827,6.827,6.827s6.827-3.057,6.827-6.827v-102.4
			C75.093,279.536,72.037,276.479,68.267,276.479z"/>
	</g>
</g>
<g>
	<g>
		<path d="M102.069,276.479H68.267c-3.77,0-6.827,3.057-6.827,6.827s3.057,6.827,6.827,6.827h33.802
			c11.476,0,20.811,7.658,20.809,17.07c0,6.48-4.64,12.513-11.841,15.375c-1.872,0.751-3.854,1.256-5.898,1.505
			c-1,0.123-2.038,0.183-3.07,0.183c-3.77,0-6.827,3.057-6.827,6.827s3.057,6.827,6.827,6.827c1.594,0,3.197-0.096,4.731-0.285
			c3.21-0.391,6.345-1.191,9.3-2.376c12.413-4.936,20.434-15.952,20.434-28.064C136.533,290.259,121.073,276.479,102.069,276.479z"
			/>
	</g>
</g>
<g>
	<g>
		<path d="M116.692,324.266H68.267c-3.77,0-6.827,3.057-6.827,6.827s3.057,6.827,6.827,6.827h48.425
			c10.94,0,19.842,9.189,19.842,20.483c0,11.291-8.9,20.477-19.842,20.477H68.267c-3.77,0-6.827,3.057-6.827,6.827
			s3.057,6.827,6.827,6.827h48.425c18.47,0,33.495-15.314,33.495-34.138C150.187,339.576,135.161,324.266,116.692,324.266z"/>
	</g>
</g>
<g>
	<g>
		<path d="M380.752,369.158c-2.384-2.918-6.685-3.352-9.605-0.966c-8.433,6.891-19.086,10.687-29.998,10.687
			c-26.249,0-47.602-21.436-47.602-47.787c0-26.349,21.354-47.787,47.602-47.787c9.965,0,19.499,3.053,27.568,8.83
			c3.065,2.195,7.33,1.488,9.525-1.577s1.488-7.33-1.577-9.525c-10.402-7.446-22.683-11.382-35.516-11.382
			c-33.777,0-61.256,27.563-61.256,61.44c0,33.877,27.479,61.44,61.256,61.44c14.053,0,27.774-4.89,38.637-13.769
			C382.706,376.377,383.138,372.078,380.752,369.158z"/>
	</g>
</g>
<g>
</g>
<g>
</g>
<g>
</g>
<g>
</g>
<g>
</g>
<g>
</g>
<g>
</g>
<g>
</g>
<g>
</g>
<g>
</g>
<g>
</g>
<g>
</g>
<g>
</g>
<g>
</g>
<g>
</g>
</svg>
